<?xml version="1.0" encoding="iso-8859-1"?>
<!-- Generator: Adobe Illustrator 23.0.2, SVG Export Plug-In . SVG Version: 6.00 Build 0)  -->
<svg version="1.1" id="Layer_1" xmlns="http://www.w3.org/2000/svg" xmlns:xlink="http://www.w3.org/1999/xlink" x="0px" y="0px"
	 viewBox="0 0 1000 1000" style="enable-background:new 0 0 1000 1000;" xml:space="preserve">
<rect style="fill:#EAECEF;" width="1000" height="1000"/>
<g id="XMLID_34_">
	<path id="XMLID_223_" style="fill:#C9C9C9;" d="M789.493,666.303H169.161c-4.971,0-9-4.029-9-9v0c0-4.971,4.029-9,9-9h620.332
		c4.971,0,9,4.029,9,9v0C798.493,662.273,794.463,666.303,789.493,666.303z"/>
	<g id="XMLID_19_">
		<g id="XMLID_163_">
			<path id="XMLID_178_" style="fill:#CECECE;" d="M285.891,573.289c-9.563,0-17.342-7.78-17.342-17.343s7.78-17.342,17.342-17.342
				h98.034v34.685H285.891z"/>
			<path id="XMLID_162_" style="fill:#FFFFFF;" d="M389.603,579.289H285.891c-12.892,0-23.342-10.451-23.342-23.342l0,0
				c0-12.892,10.451-23.342,23.342-23.342h103.712V579.289z"/>
			
				<line id="XMLID_164_" style="fill:none;stroke:#1F3969;stroke-width:4;stroke-linecap:round;stroke-linejoin:round;stroke-miterlimit:10;" x1="279.549" y1="550.567" x2="383.925" y2="550.567"/>
			
				<line id="XMLID_173_" style="fill:none;stroke:#1F3969;stroke-width:4;stroke-linecap:round;stroke-linejoin:round;stroke-miterlimit:10;" x1="279.549" y1="561.158" x2="383.925" y2="561.158"/>
			
				<path id="XMLID_179_" style="fill:none;stroke:#1F3969;stroke-width:4;stroke-linecap:round;stroke-linejoin:round;stroke-miterlimit:10;" d="
				M285.891,573.289c-9.563,0-17.342-7.78-17.342-17.343s7.78-17.342,17.342-17.342h98.034v34.685H285.891z"/>
			<path id="XMLID_161_" style="fill:#FF3E3E;" d="M285.891,573.289c-9.563,0-17.342-7.78-17.342-17.343s7.78-17.342,17.342-17.342
				h99.712l4-6H285.891c-12.892,0-23.342,10.451-23.342,23.342v0c0,12.892,10.451,23.342,23.342,23.342h103.712l-4-6H285.891z"/>
			
				<path id="XMLID_182_" style="fill:none;stroke:#1F3969;stroke-width:4;stroke-linecap:round;stroke-linejoin:round;stroke-miterlimit:10;" d="
				M285.891,573.289c-9.563,0-17.342-7.78-17.342-17.343s7.78-17.342,17.342-17.342h99.712l4-6H285.891
				c-12.892,0-23.342,10.451-23.342,23.342v0c0,12.892,10.451,23.342,23.342,23.342h103.712l-4-6H285.891z"/>
			
				<rect id="XMLID_224_" x="348.914" y="532.604" style="opacity:0.28;fill:#1F3969;stroke:#1F3969;stroke-width:4;stroke-linecap:round;stroke-linejoin:round;stroke-miterlimit:10;" width="18.391" height="46.685"/>
		</g>
		<g id="XMLID_160_">
			<path id="XMLID_157_" style="fill:#50B56F;" d="M378.935,617.846H189.032c-3.734,0-6.761-3.027-6.761-6.761V586.05
				c0-3.734,3.027-6.761,6.761-6.761h189.903c3.734,0,6.761,3.027,6.761,6.761v25.034
				C385.696,614.819,382.669,617.846,378.935,617.846z"/>
			<g>
				<path style="fill:#FFFFFF;" d="M240.281,599.753h-2.552v5.541h-1.733v-13.273h4.285c3.123,0,4.589,1.715,4.589,3.885
					C244.87,597.925,243.575,599.753,240.281,599.753z M240.281,598.324c1.98,0,2.818-0.933,2.818-2.419
					c0-1.542-0.838-2.456-2.818-2.456h-2.552v4.875H240.281z"/>
				<path style="fill:#FFFFFF;" d="M249.729,592.021h1.923l3.275,6.723l3.275-6.723h1.923l-4.323,8.266v5.008h-1.733v-5.008
					L249.729,592.021z"/>
				<path style="fill:#FFFFFF;" d="M264.946,592.021h8.988v1.41h-3.618v11.863h-1.733v-11.863h-3.637V592.021z"/>
				<path style="fill:#FFFFFF;" d="M288.371,599.276h-6.76v6.018h-1.733v-13.273h1.733v5.828h6.76v-5.828h1.733v13.273h-1.733
					V599.276z"/>
				<path style="fill:#FFFFFF;" d="M302.865,605.427c-3.732,0-6.665-2.799-6.665-6.779c0-3.979,2.933-6.779,6.665-6.779
					c3.751,0,6.665,2.8,6.665,6.779C309.53,602.628,306.617,605.427,302.865,605.427z M302.865,603.923
					c2.799,0,4.894-2.037,4.894-5.275c0-3.256-2.095-5.274-4.894-5.274s-4.894,2.019-4.894,5.274
					C297.971,601.886,300.066,603.923,302.865,603.923z"/>
				<path style="fill:#FFFFFF;" d="M326.063,592.002v13.292h-1.733l-6.97-10.568v10.568h-1.733v-13.292h1.733l6.97,10.55v-10.55
					H326.063z"/>
			</g>
			
				<path id="XMLID_146_" style="fill:none;stroke:#1F3969;stroke-width:4;stroke-linecap:round;stroke-linejoin:round;stroke-miterlimit:10;" d="
				M378.935,617.846H189.032c-3.734,0-6.761-3.027-6.761-6.761V586.05c0-3.734,3.027-6.761,6.761-6.761h189.903
				c3.734,0,6.761,3.027,6.761,6.761v25.034C385.696,614.819,382.669,617.846,378.935,617.846z"/>
		</g>
		
			<path id="XMLID_246_" style="opacity:0.28;fill:#1F3969;stroke:#1F3969;stroke-width:4;stroke-linecap:round;stroke-linejoin:round;stroke-miterlimit:10;" d="
			M378.935,579.289h-30.021v14.996c0,9.423,7.639,17.061,17.061,17.061h19.708c0.003-0.088,0.013-0.173,0.013-0.262V586.05
			C385.696,582.316,382.669,579.289,378.935,579.289z"/>
		<path id="XMLID_35_" style="fill:#CECECE;" d="M432.39,625.587H212.442c1.282,3.25,2.031,7.155,2.031,11.358
			c0,4.203-0.749,8.108-2.031,11.358H432.39c-1.282-3.25-2.031-7.155-2.031-11.358C430.36,632.742,431.108,628.837,432.39,625.587z"
			/>
		<rect id="XMLID_156_" x="206.485" y="619.543" style="fill:#5F5AFF;" width="231.87" height="6.044"/>
		
			<rect id="XMLID_32_" x="206.485" y="619.543" style="fill:none;stroke:#1F3969;stroke-width:4;stroke-linecap:round;stroke-linejoin:round;stroke-miterlimit:10;" width="231.87" height="6.044"/>
		<rect id="XMLID_147_" x="206.485" y="648.303" style="fill:#F6F9FD;" width="231.87" height="6.044"/>
		<rect id="XMLID_39_" x="206.485" y="648.303" style="fill:#5F5AFF;" width="231.87" height="6.044"/>
		
			<rect id="XMLID_37_" x="206.485" y="648.303" style="fill:none;stroke:#1F3969;stroke-width:4;stroke-linecap:round;stroke-linejoin:round;stroke-miterlimit:10;" width="231.87" height="6.044"/>
		<path id="XMLID_69_" style="fill:#BFCFE2;" d="M553.631,632.998l-3.014-33.652H501.21l-3.014,33.652
			c-0.7,7.816-5.404,15.305-12.777,21.276l-0.009,0.072h81.007l-0.009-0.072C559.035,648.303,554.331,640.814,553.631,632.998z"/>
		
			<polygon id="XMLID_33_" style="opacity:0.28;fill:#1F3969;stroke:#1F3969;stroke-width:4;stroke-linecap:round;stroke-linejoin:round;stroke-miterlimit:10;" points="
			501.21,599.346 499.401,619.543 552.426,619.543 550.618,599.346 		"/>
		
			<path id="XMLID_10_" style="fill:none;stroke:#1F3969;stroke-width:4;stroke-linecap:round;stroke-linejoin:round;stroke-miterlimit:10;" d="
			M553.631,632.998l-3.014-33.652H501.21l-3.014,33.652c-0.7,7.816-5.404,15.305-12.777,21.276l-0.009,0.072h81.007l-0.009-0.072
			C559.035,648.303,554.331,640.814,553.631,632.998z"/>
		<path id="XMLID_13_" style="fill:#FFFFFF;" d="M683.914,604.346h-316c-6.627,0-12-5.373-12-12v-206c0-6.627,5.373-12,12-12h316
			c6.627,0,12,5.373,12,12v206C695.914,598.974,690.541,604.346,683.914,604.346z"/>
		<path id="XMLID_63_" style="fill:#BFCFE2;" d="M683.914,604.346h-316c-6.627,0-12-5.373-12-12v-206c0-6.627,5.373-12,12-12h316
			c6.627,0,12,5.373,12,12v206C695.914,598.974,690.541,604.346,683.914,604.346z"/>
		
			<path id="XMLID_4_" style="fill:none;stroke:#1F3969;stroke-width:4;stroke-linecap:round;stroke-linejoin:round;stroke-miterlimit:10;" d="
			M683.914,604.346h-316c-6.627,0-12-5.373-12-12v-206c0-6.627,5.373-12,12-12h316c6.627,0,12,5.373,12,12v206
			C695.914,598.974,690.541,604.346,683.914,604.346z"/>
		
			<rect id="XMLID_68_" x="438.618" y="325.642" transform="matrix(-1.836970e-16 1 -1 -1.836970e-16 1004.5556 -47.2719)" style="fill:#F6F9FD;" width="174.591" height="306"/>
		
			<path id="XMLID_197_" style="opacity:0.28;fill:#1F3969;stroke:#1F3969;stroke-width:4;stroke-linecap:round;stroke-linejoin:round;stroke-miterlimit:10;" d="
			M383.928,374.346v138.593c0,4.418,3.582,8,8,8h189.073c4.418,0,8-3.582,8-8V374.346H383.928z"/>
		
			<rect id="XMLID_11_" x="438.618" y="325.642" transform="matrix(-1.836970e-16 1 -1 -1.836970e-16 1004.5556 -47.2719)" style="fill:none;stroke:#1F3969;stroke-width:4;stroke-linecap:round;stroke-linejoin:round;stroke-miterlimit:10;" width="174.591" height="306"/>
		
			<line id="XMLID_9_" style="fill:none;stroke:#1F3969;stroke-width:4;stroke-linecap:round;stroke-linejoin:round;stroke-miterlimit:10;" x1="512.468" y1="585.048" x2="539.36" y2="585.048"/>
		<path id="XMLID_15_" style="fill:#2D425E;" d="M590.001,509.939H400.928c-4.418,0-8-3.582-8-8V353.654c0-4.418,3.582-8,8-8
			h189.072c4.418,0,8,3.582,8,8v148.286C598.001,506.358,594.419,509.939,590.001,509.939z"/>
		
			<path id="XMLID_17_" style="fill:none;stroke:#1F3969;stroke-width:4;stroke-linecap:round;stroke-linejoin:round;stroke-miterlimit:10;" d="
			M598.001,365.108H392.928v-11.454c0-4.418,3.582-8,8-8h189.072c4.418,0,8,3.582,8,8V365.108z"/>
		<path id="XMLID_23_" style="fill:#D0DDF0;" d="M598.001,368.918H392.928v-15.264c0-4.418,3.582-8,8-8h189.072c4.418,0,8,3.582,8,8
			V368.918z"/>
		
			<path id="XMLID_18_" style="fill:none;stroke:#1F3969;stroke-width:4;stroke-linecap:round;stroke-linejoin:round;stroke-miterlimit:10;" d="
			M598.001,368.918H392.928v-15.264c0-4.418,3.582-8,8-8h189.072c4.418,0,8,3.582,8,8V368.918z"/>
		
			<path id="XMLID_20_" style="fill:none;stroke:#1F3969;stroke-width:4;stroke-linecap:round;stroke-linejoin:round;stroke-miterlimit:10;" d="
			M598.001,368.918H392.928v-15.264c0-4.418,3.582-8,8-8h189.072c4.418,0,8,3.582,8,8V368.918z"/>
		
			<path id="XMLID_12_" style="fill:none;stroke:#1F3969;stroke-width:4;stroke-linecap:round;stroke-linejoin:round;stroke-miterlimit:10;" d="
			M590.001,509.939H400.928c-4.418,0-8-3.582-8-8V353.654c0-4.418,3.582-8,8-8h189.072c4.418,0,8,3.582,8,8v148.286
			C598.001,506.358,594.419,509.939,590.001,509.939z"/>
		<g id="XMLID_72_">
			
				<path id="XMLID_7_" style="opacity:0.28;fill:#1F3969;stroke:#1F3969;stroke-width:4;stroke-linecap:round;stroke-linejoin:round;stroke-miterlimit:10;" d="
				M688.689,545.345H572.673c-4.418,0-8-3.582-8-8V414.4c0-4.418,3.582-8,8-8h116.016c4.418,0,8,3.582,8,8v122.945
				C696.689,541.764,693.108,545.345,688.689,545.345z"/>
			<path id="XMLID_16_" style="fill:#2AA1FF;" d="M696.689,538.345H580.673c-4.418,0-8-3.582-8-8V407.4c0-4.418,3.582-8,8-8h116.016
				c4.418,0,8,3.582,8,8v122.945C704.689,534.764,701.108,538.345,696.689,538.345z"/>
			
				<path id="XMLID_14_" style="fill:none;stroke:#1F3969;stroke-width:4;stroke-linecap:round;stroke-linejoin:round;stroke-miterlimit:10;" d="
				M696.689,538.345H580.673c-4.418,0-8-3.582-8-8V407.4c0-4.418,3.582-8,8-8h116.016c4.418,0,8,3.582,8,8v122.945
				C704.689,534.764,701.108,538.345,696.689,538.345z"/>
			
				<path id="XMLID_75_" style="opacity:0.34;fill:none;stroke:#FFFFFF;stroke-width:2;stroke-linecap:round;stroke-linejoin:round;stroke-miterlimit:10;" d="
				M679.426,437.473h-81.569c-2.854,0-5.167-2.313-5.167-5.167v-7.8c0-2.854,2.313-5.167,5.167-5.167h81.569
				c2.854,0,5.167,2.313,5.167,5.167v7.8C684.593,435.16,682.279,437.473,679.426,437.473z"/>
			<g id="XMLID_143_" style="opacity:0.34;">
				
					<path id="XMLID_78_" style="fill:none;stroke:#FFFFFF;stroke-width:2;stroke-linecap:round;stroke-linejoin:round;stroke-miterlimit:10;" d="
					M643.58,466.78h-45.643c-2.854,0-5.167-2.313-5.167-5.167v-7.8c0-2.854,2.313-5.167,5.167-5.167h45.643
					c2.854,0,5.167,2.313,5.167,5.167v7.8C648.747,464.467,646.434,466.78,643.58,466.78z"/>
				
					<path id="XMLID_79_" style="fill:none;stroke:#FFFFFF;stroke-width:2;stroke-linecap:round;stroke-linejoin:round;stroke-miterlimit:10;" d="
					M679.506,466.78h-17.655c-2.854,0-5.167-2.313-5.167-5.167v-7.8c0-2.854,2.313-5.167,5.167-5.167h17.655
					c2.854,0,5.167,2.313,5.167,5.167v7.8C684.673,464.467,682.359,466.78,679.506,466.78z"/>
			</g>
			<g id="XMLID_76_">
				
					<line id="XMLID_135_" style="fill:none;stroke:#FFFFFF;stroke-width:2;stroke-linecap:round;stroke-linejoin:round;stroke-miterlimit:10;" x1="592.69" y1="497.23" x2="684.593" y2="497.23"/>
				
					<line id="XMLID_136_" style="fill:none;stroke:#FFFFFF;stroke-width:2;stroke-linecap:round;stroke-linejoin:round;stroke-miterlimit:10;" x1="592.69" y1="508.021" x2="684.593" y2="508.021"/>
				
					<line id="XMLID_138_" style="fill:none;stroke:#FFFFFF;stroke-width:2;stroke-linecap:round;stroke-linejoin:round;stroke-miterlimit:10;" x1="592.69" y1="518.811" x2="648.667" y2="518.811"/>
			</g>
		</g>
		<circle id="XMLID_24_" style="fill:#1F3969;" cx="413" cy="357.286" r="4"/>
		<circle id="XMLID_28_" style="fill:#1F3969;" cx="426.886" cy="357.286" r="4"/>
		<circle id="XMLID_38_" style="fill:#1F3969;" cx="440.772" cy="357.286" r="4"/>
		<g id="XMLID_61_">
			
				<line id="XMLID_54_" style="fill:none;stroke:#FFFFFF;stroke-width:4;stroke-linecap:round;stroke-linejoin:round;stroke-miterlimit:10;" x1="510.741" y1="387.379" x2="523.669" y2="387.379"/>
			
				<line id="XMLID_66_" style="fill:none;stroke:#7BFFA0;stroke-width:4;stroke-linecap:round;stroke-linejoin:round;stroke-miterlimit:10;" x1="444.772" y1="387.379" x2="501.148" y2="387.379"/>
			
				<line id="XMLID_29_" style="fill:none;stroke:#9169FF;stroke-width:4;stroke-linecap:round;stroke-linejoin:round;stroke-miterlimit:10;" x1="417" y1="387.379" x2="436.772" y2="387.379"/>
		</g>
		<g id="XMLID_42_">
			
				<line id="XMLID_62_" style="fill:none;stroke:#9169FF;stroke-width:4;stroke-linecap:round;stroke-linejoin:round;stroke-miterlimit:10;" x1="442.772" y1="485.938" x2="485.83" y2="485.938"/>
			
				<line id="XMLID_30_" style="fill:none;stroke:#7BFFA0;stroke-width:4;stroke-linecap:round;stroke-linejoin:round;stroke-miterlimit:10;" x1="417" y1="485.938" x2="430.885" y2="485.938"/>
		</g>
		<g id="XMLID_27_">
			
				<line id="XMLID_60_" style="fill:none;stroke:#FFFFFF;stroke-width:4;stroke-linecap:round;stroke-linejoin:round;stroke-miterlimit:10;" x1="501.149" y1="399.699" x2="509.164" y2="399.699"/>
			
				<line id="XMLID_45_" style="fill:none;stroke:#9169FF;stroke-width:4;stroke-linecap:round;stroke-linejoin:round;stroke-miterlimit:10;" x1="464.279" y1="399.699" x2="491.506" y2="399.699"/>
			
				<line id="XMLID_47_" style="fill:none;stroke:#FFC47D;stroke-width:4;stroke-linecap:round;stroke-linejoin:round;stroke-miterlimit:10;" x1="426.886" y1="399.699" x2="454.63" y2="399.699"/>
		</g>
		<g id="XMLID_49_">
			
				<line id="XMLID_59_" style="fill:none;stroke:#FFFFFF;stroke-width:4;stroke-linecap:round;stroke-linejoin:round;stroke-miterlimit:10;" x1="469.83" y1="412.019" x2="493.668" y2="412.019"/>
			
				<line id="XMLID_50_" style="fill:none;stroke:#FF5757;stroke-width:4;stroke-linecap:round;stroke-linejoin:round;stroke-miterlimit:10;" x1="439.769" y1="412.019" x2="462.251" y2="412.019"/>
		</g>
		<g id="XMLID_65_">
			
				<line id="XMLID_58_" style="fill:none;stroke:#FFFFFF;stroke-width:4;stroke-linecap:round;stroke-linejoin:round;stroke-miterlimit:10;" x1="473.009" y1="424.339" x2="477.947" y2="424.339"/>
			
				<line id="XMLID_70_" style="fill:none;stroke:#9169FF;stroke-width:4;stroke-linecap:round;stroke-linejoin:round;stroke-miterlimit:10;" x1="453.189" y1="424.339" x2="464.279" y2="424.339"/>
			
				<line id="XMLID_67_" style="fill:none;stroke:#7BFFA0;stroke-width:4;stroke-linecap:round;stroke-linejoin:round;stroke-miterlimit:10;" x1="426.886" y1="424.339" x2="444.772" y2="424.339"/>
		</g>
		<g id="XMLID_73_">
			
				<line id="XMLID_77_" style="fill:none;stroke:#FFC47D;stroke-width:4;stroke-linecap:round;stroke-linejoin:round;stroke-miterlimit:10;" x1="465.288" y1="436.659" x2="497.182" y2="436.659"/>
			
				<line id="XMLID_74_" style="fill:none;stroke:#FF5757;stroke-width:4;stroke-linecap:round;stroke-linejoin:round;stroke-miterlimit:10;" x1="426.886" y1="436.659" x2="455.513" y2="436.659"/>
		</g>
		<g id="XMLID_80_">
			
				<line id="XMLID_64_" style="fill:none;stroke:#9169FF;stroke-width:4;stroke-linecap:round;stroke-linejoin:round;stroke-miterlimit:10;" x1="502.182" y1="448.979" x2="519.525" y2="448.979"/>
			
				<line id="XMLID_84_" style="fill:none;stroke:#FF5757;stroke-width:4;stroke-linecap:round;stroke-linejoin:round;stroke-miterlimit:10;" x1="465.288" y1="448.979" x2="493.037" y2="448.979"/>
			
				<line id="XMLID_81_" style="fill:none;stroke:#7BFFA0;stroke-width:4;stroke-linecap:round;stroke-linejoin:round;stroke-miterlimit:10;" x1="439.769" y1="448.979" x2="455.513" y2="448.979"/>
		</g>
		<g id="XMLID_87_">
			
				<line id="XMLID_95_" style="fill:none;stroke:#FFFFFF;stroke-width:4;stroke-linecap:round;stroke-linejoin:round;stroke-miterlimit:10;" x1="477.893" y1="461.299" x2="493.037" y2="461.299"/>
			
				<line id="XMLID_90_" style="fill:none;stroke:#9169FF;stroke-width:4;stroke-linecap:round;stroke-linejoin:round;stroke-miterlimit:10;" x1="439.769" y1="461.299" x2="467.513" y2="461.299"/>
		</g>
		<g id="XMLID_98_">
			
				<line id="XMLID_71_" style="fill:none;stroke:#FFFFFF;stroke-width:4;stroke-linecap:round;stroke-linejoin:round;stroke-miterlimit:10;" x1="517.205" y1="473.618" x2="534.497" y2="473.618"/>
			
				<line id="XMLID_102_" style="fill:none;stroke:#FFC47D;stroke-width:4;stroke-linecap:round;stroke-linejoin:round;stroke-miterlimit:10;" x1="464.279" y1="473.618" x2="507.848" y2="473.618"/>
			
				<line id="XMLID_99_" style="fill:none;stroke:#FFFFFF;stroke-width:4;stroke-linecap:round;stroke-linejoin:round;stroke-miterlimit:10;" x1="426.886" y1="473.618" x2="454.63" y2="473.618"/>
		</g>
		
			<line id="XMLID_145_" style="fill:none;stroke:#1F3969;stroke-width:4;stroke-linecap:round;stroke-linejoin:round;stroke-miterlimit:10;" x1="214.895" y1="632.523" x2="430.36" y2="632.523"/>
		
			<line id="XMLID_151_" style="fill:none;stroke:#1F3969;stroke-width:4;stroke-linecap:round;stroke-linejoin:round;stroke-miterlimit:10;" x1="214.895" y1="640.539" x2="430.36" y2="640.539"/>
		
			<path id="XMLID_158_" style="fill:none;stroke:#1F3969;stroke-width:4;stroke-linecap:round;stroke-linejoin:round;stroke-miterlimit:10;" d="
			M432.39,625.587H212.442c1.282,3.25,2.031,7.155,2.031,11.358c0,4.203-0.749,8.108-2.031,11.358H432.39
			c-1.282-3.25-2.031-7.155-2.031-11.358C430.36,632.742,431.108,628.837,432.39,625.587z"/>
	</g>
	<g id="XMLID_222_">
		<g id="XMLID_174_">
			
				<rect id="XMLID_177_" x="722.76" y="544.444" transform="matrix(0.9932 -0.1166 0.1166 0.9932 -62.746 88.7942)" style="fill:#FFA364;" width="9.814" height="72.65"/>
			
				<rect id="XMLID_31_" x="718.956" y="544.666" transform="matrix(0.9932 -0.1166 0.1166 0.9932 -58.9937 88.1297)" style="fill:#2AA1FF;" width="9.814" height="7.39"/>
			
				<rect id="XMLID_217_" x="718.956" y="544.666" transform="matrix(0.9932 -0.1166 0.1166 0.9932 -58.9937 88.1297)" style="fill:none;stroke:#1F3969;stroke-width:4;stroke-linecap:round;stroke-linejoin:round;stroke-miterlimit:10;" width="9.814" height="7.39"/>
			
				<rect id="XMLID_22_" x="722.76" y="544.444" transform="matrix(0.9932 -0.1166 0.1166 0.9932 -62.746 88.7942)" style="fill:none;stroke:#1F3969;stroke-width:4;stroke-linecap:round;stroke-linejoin:round;stroke-miterlimit:10;" width="9.814" height="72.65"/>
		</g>
		<g id="XMLID_189_">
			
				<rect id="XMLID_218_" x="741.439" y="558.065" transform="matrix(0.9941 0.1081 -0.1081 0.9941 68.6015 -77.1711)" style="fill:#FF5252;" width="9.814" height="72.65"/>
			
				<rect id="XMLID_214_" x="741.439" y="558.065" transform="matrix(0.9941 0.1081 -0.1081 0.9941 68.6015 -77.1711)" style="fill:none;stroke:#1F3969;stroke-width:4;stroke-linecap:round;stroke-linejoin:round;stroke-miterlimit:10;" width="9.814" height="72.65"/>
			
				<rect id="XMLID_220_" x="744.965" y="558.256" transform="matrix(0.9941 0.1081 -0.1081 0.9941 65.1167 -77.742)" style="fill:#2D425E;" width="9.814" height="7.39"/>
			
				<rect id="XMLID_211_" x="744.965" y="558.256" transform="matrix(0.9941 0.1081 -0.1081 0.9941 65.1167 -77.742)" style="fill:none;stroke:#1F3969;stroke-width:4;stroke-linecap:round;stroke-linejoin:round;stroke-miterlimit:10;" width="9.814" height="7.39"/>
		</g>
		<polygon id="XMLID_26_" style="fill:#6567C3;" points="761.07,654.573 721.809,654.573 715.424,594.39 767.455,594.39 		"/>
		<polygon id="XMLID_233_" style="fill:#6567C3;" points="715.424,594.39 715.541,595.495 755.182,595.495 748.915,654.573 
			761.07,654.573 767.455,594.39 		"/>
		
			<polygon id="XMLID_21_" style="fill:none;stroke:#1F3969;stroke-width:4;stroke-linecap:round;stroke-linejoin:round;stroke-miterlimit:10;" points="
			761.07,654.573 721.809,654.573 715.424,594.39 767.455,594.39 		"/>
	</g>
</g>
</svg>
