<svg width="390" height="230" xmlns="http://www.w3.org/2000/svg"><defs><linearGradient x1="32%" y1="33.099%" x2="68%" y2="66.901%" id="a"><stop stop-color="#2383AE" offset="0%"/><stop stop-color="#6DD7B9" offset="100%"/></linearGradient></defs><g fill="none" fill-rule="evenodd"><g transform="translate(1 1)"><rect stroke="#3F3D56" width="369" height="200" rx="13.638"/><path d="M0 14.5h369M0 37.5h369" stroke="#3F3D56"/><ellipse fill="#F86B75" fill-rule="nonzero" cx="9.5" cy="9" rx="4.5" ry="4"/><ellipse fill="#FAD375" fill-rule="nonzero" cx="20.5" cy="9" rx="4.5" ry="4"/><ellipse fill="#8BCC55" fill-rule="nonzero" cx="34.5" cy="9" rx="4.5" ry="4"/><ellipse stroke="#3F3D56" cx="11.5" cy="6" rx="4.5" ry="4"/><ellipse stroke="#3F3D56" cx="21.5" cy="6" rx="4.5" ry="4"/><ellipse stroke="#3F3D56" cx="35.5" cy="6" rx="4.5" ry="4"/><circle fill="#F2F2F2" fill-rule="nonzero" cx="85.5" cy="28.5" r="7.5"/><circle stroke="#3F3D56" cx="89.5" cy="27.5" r="7.5"/><rect fill="#1C75BC" fill-rule="nonzero" x="195" y="26" width="38" height="10" rx="5"/><rect fill="#1C75BC" fill-rule="nonzero" x="249" y="26" width="38" height="10" rx="5"/><rect stroke="#3F3D56" x="197" y="22" width="38" height="10" rx="4.222"/><rect stroke="#3F3D56" x="251" y="22" width="38" height="10" rx="4.222"/><rect stroke="#3F3D56" x="44" y="64" width="272" height="103" rx="16.004"/><path d="M316 181c0 22.662 14.312 41 32 41" fill="#46455B" fill-rule="nonzero"/><path d="M348 222c0-22.662 16.102-41 36-41M327 183c0 21.004 9.393 38 21 38" fill="#1C75BC" fill-rule="nonzero"/><path d="M348 220c0-28.742 18.338-52 41-52" fill="#46455B" fill-rule="nonzero"/><path d="M342 222.574s4.3-.147 5.596-1.17c1.296-1.021 6.614-2.242 6.936-.602.321 1.639 6.462 8.153 1.607 8.196-4.855.044-11.28-.837-12.573-1.71-1.294-.873-1.566-4.714-1.566-4.714z" fill="#A8A8A8" fill-rule="nonzero"/><path d="M356.227 227.555c-4.855.034-11.281-.65-12.575-1.33-.985-.516-1.377-2.37-1.508-3.225l-.144.005s.272 2.986 1.566 3.664c1.293.679 7.72 1.364 12.574 1.33 1.401-.01 1.886-.44 1.859-1.075-.195.384-.73.624-1.772.631z" fill="#000" fill-rule="nonzero" opacity=".2"/><path d="M106 228.5h91M337 228.5h27" stroke="#3F3D56"/></g><g fill-rule="nonzero"><path fill="#41B883" d="M285.8 91H298l-30.5 52.952L237 91h23.333l7.167 12.279L274.515 91z"/><path fill="#41B883" d="M237 91l30.5 52.952L298 91h-12.2l-18.3 31.771L249.047 91z"/><path fill="#35495E" d="M249.048 91l18.452 31.925L285.8 91h-11.285l-7.015 12.279L260.332 91z"/></g><g fill-rule="nonzero"><ellipse cx="29.999" cy="29.454" rx="29.999" ry="29.454" fill="#000" transform="translate(149 84)"/><ellipse cx="29.999" cy="29.454" rx="29.999" ry="29.454" fill="#FFF" transform="translate(149 84)"/><path d="M19.75 34.333C21.183 28.778 24.767 26 30.5 26c8.6 0 9.675 6.25 13.975 7.292 2.867.694 5.375-.348 7.525-3.125-1.433 5.555-5.017 8.333-10.75 8.333-8.6 0-9.675-6.25-13.975-7.292-2.867-.694-5.375.348-7.525 3.125zM9 46.833c1.433-5.555 5.017-8.333 10.75-8.333 8.6 0 9.675 6.25 13.975 7.292 2.867.694 5.375-.348 7.525-3.125C39.817 48.222 36.233 51 30.5 51c-8.6 0-9.675-6.25-13.975-7.292-2.867-.694-5.375.348-7.525 3.125z" fill="url(#a)" transform="translate(149 75)"/></g><path d="M125.76 111.619c-.41-.456-5.988-7.49-6.978-8.687-.991-1.196-1.458-.982-2.067-.883-.609.1-7.672 1.282-8.493 1.424-.82.143-1.33.47-.835 1.182.453.627 5.096 7.263 6.115 8.715l-18.472 4.458L80.366 93.12c-.58-.87-.708-1.182-2.038-1.111-1.331.057-11.522.911-12.244.968-.722.057-1.529.385-.793 2.108.722 1.723 12.3 26.814 12.626 27.54.326.727 1.16 1.909 3.128 1.439 2.01-.484 8.988-2.321 12.796-3.318 2.01 3.674 6.129 11.107 6.88 12.175 1.018 1.424 1.712 1.182 3.269.712 1.217-.37 19.024-6.806 19.83-7.148.807-.328 1.303-.57.75-1.382-.396-.598-5.095-6.92-7.558-10.238 1.685-.456 7.672-2.051 8.323-2.236.736-.185.835-.556.425-1.011zm-33.575 6.906c-.227.043-10.56 2.535-11.111 2.663-.552.129-.552.057-.61-.128-.056-.185-12.3-25.576-12.47-25.889-.17-.313-.155-.57 0-.57.156 0 9.767-.868 10.107-.882.34-.015.297.057.425.27 0 0 13.546 23.525 13.786 23.938.241.428.1.556-.127.598zm29.173 5.497c.17.257.325.427-.184.613-.524.185-17.51 5.952-17.835 6.094-.326.143-.595.186-1.02-.427-.424-.612-5.944-10.239-5.944-10.239l18.004-4.713c.453-.143.595-.242.878.213.283.456 5.93 8.203 6.1 8.46zm1.146-12.859c-.41.086-7.02 1.737-7.02 1.737l-5.408-7.462c-.155-.213-.283-.427.1-.484.382-.057 6.525-1.167 6.794-1.224.283-.057.523-.143.863.327.34.47 5.01 6.423 5.195 6.65.184.228-.113.37-.524.456z" fill="#FB503B" fill-rule="nonzero"/></g></svg>
